<svg xmlns="http://www.w3.org/2000/svg" width="23.651" height="23.052" viewBox="0 0 23.651 23.052">
  <path id="Icon_awesome-arrow-right" data-name="Icon awesome-arrow-right" d="M10.056,4.191l1.172-1.172a1.262,1.262,0,0,1,1.789,0L23.279,13.276a1.262,1.262,0,0,1,0,1.789L13.017,25.327a1.262,1.262,0,0,1-1.789,0l-1.172-1.172a1.268,1.268,0,0,1,.021-1.811l6.361-6.06H1.267A1.264,1.264,0,0,1,0,15.018V13.328a1.264,1.264,0,0,1,1.267-1.267H16.438L10.077,6A1.259,1.259,0,0,1,10.056,4.191Z" transform="translate(0 -2.647)" fill="#fff"/>
</svg>
