<svg xmlns="http://www.w3.org/2000/svg" width="57.122" height="43.412" viewBox="0 0 57.122 43.412">
  <g id="Group_576" data-name="Group 576" transform="translate(-2 -5)">
    <circle id="Ellipse_30" data-name="Ellipse 30" cx="7.5" cy="7.5" r="7.5" transform="translate(23.061 23.206)" fill="#f26c54"/>
    <path id="Path_96" data-name="Path 96" d="M54.552,11.855H47.06a2.285,2.285,0,0,1-2.169-1.563l-.722-2.168A4.57,4.57,0,0,0,39.833,5H21.287a4.57,4.57,0,0,0-4.334,3.126l-.722,2.166a2.285,2.285,0,0,1-2.168,1.563H6.57A4.57,4.57,0,0,0,2,16.424V43.843a4.57,4.57,0,0,0,4.57,4.57H54.552a4.57,4.57,0,0,0,4.57-4.57V16.424A4.57,4.57,0,0,0,54.552,11.855ZM30.561,43.843A12.567,12.567,0,1,1,43.128,31.276,12.583,12.583,0,0,1,30.561,43.843ZM44.27,20.994a2.285,2.285,0,1,1,2.285-2.285A2.285,2.285,0,0,1,44.27,20.994Z" fill="#ed553b"/>
    <path id="Path_97" data-name="Path 97" d="M8.712,8.285H4.142A1.142,1.142,0,1,1,4.142,6h4.57a1.142,1.142,0,1,1,0,2.285Z" transform="translate(1.285 1.285)" fill="#f26c54"/>
  </g>
</svg>
