<svg xmlns="http://www.w3.org/2000/svg" width="46.213" height="46.213" viewBox="0 0 46.213 46.213">
  <path id="Path_94" data-name="Path 94" d="M31.1,7.989A23.107,23.107,0,1,0,54.2,31.1,23.132,23.132,0,0,0,31.1,7.989Zm6.53,14.587a.413.413,0,0,1-.413.413l-2.627,0c-1.733,0-2.05.675-2.05,2v2.757h4.5a.411.411,0,0,1,.309.14.417.417,0,0,1,.1.325l-.641,4.964a.413.413,0,0,1-.409.36H32.538V45.867a.413.413,0,0,1-.413.413H27a.413.413,0,0,1-.413-.413V33.54H22.711a.413.413,0,0,1-.413-.413V28.164a.413.413,0,0,1,.413-.413h3.876V24.5c0-4.3,2.6-6.975,6.8-6.975a35.851,35.851,0,0,1,3.884.2.413.413,0,0,1,.358.409Z" transform="translate(-7.99 -7.989)" fill="#3b5998"/>
</svg>
