<svg xmlns="http://www.w3.org/2000/svg" xmlns:xlink="http://www.w3.org/1999/xlink" width="40.963" height="40.963" viewBox="0 0 40.963 40.963">
  <defs>
    <clipPath id="clip-path">
      <path id="Path_86" data-name="Path 86" d="M-342.342,296.506H-355.1V301.8h7.346c-.685,3.362-3.548,5.292-7.346,5.292A8.077,8.077,0,0,1-363.2,299,8.077,8.077,0,0,1-355.1,290.9a7.918,7.918,0,0,1,5.043,1.805l3.984-3.984A13.633,13.633,0,0,0-355.1,285.3,13.656,13.656,0,0,0-368.8,299a13.657,13.657,0,0,0,13.7,13.7c6.848,0,13.073-4.98,13.073-13.7A11.362,11.362,0,0,0-342.342,296.506Z" transform="translate(368.8 -285.3)"/>
    </clipPath>
  </defs>
  <g id="Group_556" data-name="Group 556" transform="translate(380.2 -274.7)">
    <circle id="Ellipse_26" data-name="Ellipse 26" cx="20.482" cy="20.482" r="20.482" transform="translate(-380.2 274.7)" fill="#e0e0e0"/>
    <g id="Group_555" data-name="Group 555" transform="translate(-373.103 281.299)">
      <g id="Group_549" data-name="Group 549" transform="translate(0 0)" clip-path="url(#clip-path)">
        <path id="Path_85" data-name="Path 85" d="M-370.8,310.486V294.3l10.583,8.093Z" transform="translate(369.555 -288.697)" fill="#fbbc05"/>
      </g>
      <g id="Group_550" data-name="Group 550" transform="translate(0 0)" clip-path="url(#clip-path)">
        <path id="Path_87" data-name="Path 87" d="M-370.8,290.148l10.583,8.093,4.358-3.8,14.941-2.428V283.3H-370.8Z" transform="translate(369.555 -284.545)" fill="#ea4335"/>
      </g>
      <g id="Group_552" data-name="Group 552" transform="translate(0 0)">
        <g id="Group_551" data-name="Group 551" clip-path="url(#clip-path)">
          <path id="Path_89" data-name="Path 89" d="M-370.8,306.334l18.676-14.318,4.918.623,6.288-9.338v29.882H-370.8Z" transform="translate(369.555 -284.545)" fill="#34a853"/>
        </g>
      </g>
      <g id="Group_554" data-name="Group 554" transform="translate(0 0)">
        <g id="Group_553" data-name="Group 553" clip-path="url(#clip-path)">
          <path id="Path_91" data-name="Path 91" d="M-336.011,317.334l-19.3-14.941-2.49-1.868,21.789-6.225Z" transform="translate(364.648 -288.697)" fill="#4285f4"/>
        </g>
      </g>
    </g>
  </g>
</svg>
