<svg xmlns="http://www.w3.org/2000/svg" width="90.592" height="24.67" viewBox="0 0 90.592 24.67">
  <g id="Group_817" data-name="Group 817" transform="translate(-61.006 -62.01)">
    <g id="Group_756" data-name="Group 756" transform="translate(61.007 62.175)">
      <path id="Rectangle_318" data-name="Rectangle 318" d="M12.335,0H55.507a0,0,0,0,1,0,0V12.335A12.335,12.335,0,0,1,43.172,24.67H12.335A12.335,12.335,0,0,1,0,12.335v0A12.335,12.335,0,0,1,12.335,0Z" transform="translate(0 -0.165)" fill="#ed553b"/>
      <g id="Group_755" data-name="Group 755" transform="translate(8.211 1.974)">
        <text id="think_Readers" data-name="think Readers" transform="translate(23.381 12.861)" fill="#fff" font-size="8" font-family="Poppins-SemiBold, Poppins" font-weight="600" letter-spacing="0.011em"><tspan x="0" y="0">Think </tspan><tspan y="0" fill="#ed553b">Readers</tspan></text>
        <g id="Group_754" data-name="Group 754" transform="translate(0 -0.139)">
          <g id="Group_540" data-name="Group 540" transform="translate(1.549 4.08)">
            <path id="Path_37" data-name="Path 37" d="M487.748,595.333h1.937" transform="translate(-482.473 -578.884)" fill="none" stroke="#fff" stroke-linecap="round" stroke-width="0.5"/>
            <path id="Path_32" data-name="Path 32" d="M468.52,503.54c-.015,3.1-2.425,5.363-3.208,6.2a9.786,9.786,0,0,0-1.137,1.488h-3.644a10,10,0,0,0-1.14-1.488c-.783-.836-3.193-3.095-3.208-6.2a7.1,7.1,0,0,1,2.22-4.96,5.5,5.5,0,0,1,7.9,0A7.1,7.1,0,0,1,468.52,503.54Z" transform="translate(-456.184 -496.911)" fill="none" stroke="#fff" stroke-width="0.5"/>
            <g id="Group_536" data-name="Group 536" transform="translate(7.523 1.712)">
              <path id="Path_35-2" data-name="Path 35-2" d="M501.2,507.155a2.714,2.714,0,0,1,2.493,2.922" transform="translate(-501.198 -507.155)" fill="none" stroke="#fff" stroke-linecap="round" stroke-width="0.5"/>
            </g>
            <path id="Path_36" data-name="Path 36" d="M482.08,589.328h3.837" transform="translate(-477.752 -573.882)" fill="none" stroke="#fff" stroke-linecap="round" stroke-width="0.5"/>
            <g id="Group_539" data-name="Group 539" transform="translate(2.848 3.464)">
              <g id="Group_537" data-name="Group 537">
                <path id="Path_76" data-name="Path 76" d="M475.1,527.735l-1.874-7.561a1.489,1.489,0,0,0,.974.4c.995,0,1.864-1.177,2.34-2.936.474,1.759,1.345,2.936,2.339,2.936a1.5,1.5,0,0,0,.975-.4l-1.88,7.58" transform="translate(-473.226 -517.638)" fill="none" stroke="#fff" stroke-linecap="round" stroke-width="0.4"/>
              </g>
              <g id="Group_538" data-name="Group 538" transform="translate(2.133 6.062)">
                <path id="Path_77" data-name="Path 77" d="M486.632,557.4l-.641-2.586a.531.531,0,0,0,.347.143c.354,0,.664-.419.833-1.046.169.626.479,1.046.833,1.046a.532.532,0,0,0,.347-.143l-.645,2.6" transform="translate(-485.991 -553.911)" fill="none" stroke="#fff" stroke-width="0.4"/>
              </g>
            </g>
          </g>
          <path id="Path_36-2" data-name="Path 36" d="M493.51,475.058l-.01-2.558" transform="translate(-485.714 -472.5)" fill="none" stroke="#fff" stroke-linecap="round" stroke-width="0.5"/>
          <path id="Path_36-3" data-name="Path 36" d="M522.916,490.589l2.211-1.288" transform="translate(-510.214 -486.493)" fill="none" stroke="#fff" stroke-linecap="round" stroke-width="0.5"/>
          <path id="Path_36-4" data-name="Path 36" d="M449.127,490.589l-2.211-1.288" transform="translate(-446.916 -486.493)" fill="none" stroke="#fff" stroke-linecap="round" stroke-width="0.5"/>
        </g>
      </g>
    </g>
  </g>
</svg>
