<svg id="Group_558" data-name="Group 558" xmlns="http://www.w3.org/2000/svg" width="45" height="45" viewBox="0 0 45 45">
  <circle id="Ellipse_27" data-name="Ellipse 27" cx="22.5" cy="22.5" r="22.5" fill="#fff"/>
  <path id="Path_93" data-name="Path 93" d="M261.331,146.132a11.967,11.967,0,0,1-3.442.944,6.011,6.011,0,0,0,2.635-3.316,11.974,11.974,0,0,1-3.807,1.454,6,6,0,0,0-10.367,4.1,6.063,6.063,0,0,0,.154,1.366,17.018,17.018,0,0,1-12.353-6.262,6,6,0,0,0,1.855,8,5.966,5.966,0,0,1-2.715-.749v.076a6,6,0,0,0,4.808,5.876,5.963,5.963,0,0,1-1.579.21,6.082,6.082,0,0,1-1.128-.106,6,6,0,0,0,5.6,4.162,12.068,12.068,0,0,1-8.873,2.481,16.961,16.961,0,0,0,9.187,2.694c11.024,0,17.052-9.133,17.052-17.052q0-.39-.018-.775a12.212,12.212,0,0,0,2.994-3.107Z" transform="translate(-224.225 -132.694)" fill="#29b6f6"/>
</svg>
